/* XPM */
static char *ktip[] = {
/* columns rows colors chars-per-pixel */
"24 32 176 2 ",
"   c None",
".  c #0A1332",
"X  c #101939",
"o  c #17203F",
"O  c #2F2C32",
"+  c #783C1E",
"@  c #533129",
"#  c #563431",
"$  c #6D403D",
"%  c #754F37",
"&  c #0B1945",
"*  c #0C1B4B",
"=  c #1B1F45",
"-  c #0D1E57",
";  c #261F40",
":  c #14214A",
">  c #122356",
",  c #1B2A5B",
"<  c #15245C",
"1  c #2F2B48",
"2  c #232F5C",
"3  c #332F55",
"4  c #3A3957",
"5  c #0E246B",
"6  c #0E2165",
"7  c #11266B",
"8  c #1A2C63",
"9  c #0F2574",
"0  c #0E277E",
"q  c #142974",
"w  c #12297A",
"e  c #1E3171",
"r  c #293968",
"t  c #313E6B",
"y  c #273975",
"u  c #4E4243",
"i  c #4E4953",
"p  c #594743",
"a  c #745A55",
"s  c #454F6E",
"d  c #5E4F61",
"f  c #515A7A",
"g  c #525669",
"h  c #5C647E",
"j  c #746C69",
"k  c #83311C",
"l  c #87441E",
"z  c #864320",
"x  c #92532E",
"c  c #944C27",
"v  c #AA5526",
"b  c #A86D3B",
"n  c #BC783D",
"m  c #C87237",
"M  c #995C40",
"N  c #8F6C5C",
"B  c #A4724E",
"V  c #A47358",
"C  c #8F766E",
"Z  c #9D7B61",
"A  c #817171",
"S  c #9B7A74",
"D  c #B4805C",
"F  c #9B8A7A",
"G  c #C38143",
"H  c #D68743",
"J  c #C18F56",
"K  c #EF9953",
"L  c #E38945",
"P  c #DA9962",
"I  c #EA9963",
"U  c #EAA365",
"Y  c #0E2782",
"T  c #0F298B",
"R  c #122A85",
"E  c #122C8B",
"W  c #183087",
"Q  c #0F2A95",
"!  c #0E2A9B",
"~  c #112B93",
"^  c #102B99",
"/  c #1A349A",
"(  c #273B85",
")  c #0E2CA3",
"_  c #0F2EAB",
"`  c #122FA8",
"'  c #112DA0",
"]  c #1633A5",
"[  c #0F2FB3",
"{  c #0E30BD",
"}  c #1031B4",
"|  c #1333BC",
" . c #1C3BBD",
".. c #2D459E",
"X. c #3045A3",
"o. c #3E53A2",
"O. c #2B46B2",
"+. c #5C6684",
"@. c #6A728F",
"#. c #67708C",
"$. c #616D9E",
"%. c #697498",
"&. c #445AB2",
"*. c #455CBC",
"=. c #5665A3",
"-. c #747EA0",
";. c #0D2FC5",
":. c #0F31C4",
">. c #1A3AC1",
",. c #1335C8",
"<. c #1839C7",
"1. c #1538DB",
"2. c #1E40DE",
"3. c #2D48C3",
"4. c #2744C0",
"5. c #3D57C0",
"6. c #2748DF",
"7. c #465EC6",
"8. c #4D67DE",
"9. c #526CE6",
"0. c #7A829C",
"q. c #7E8FDE",
"w. c #7388E8",
"e. c #9E948C",
"r. c #8D8F98",
"t. c #99979A",
"y. c #969498",
"u. c #A79C94",
"i. c #BDA48F",
"p. c #848BA8",
"a. c #9095AB",
"s. c #A09FA3",
"d. c #A29BB7",
"f. c #9DA2B4",
"g. c #A4A3A6",
"h. c #B4A9A5",
"j. c #BDB0AD",
"k. c #AFAFB4",
"l. c #BBBBBD",
"z. c #B7B6B9",
"x. c #D9918F",
"c. c #DF9E9A",
"v. c #C0A387",
"b. c #C9B199",
"n. c #F2BF95",
"m. c #C1B3A9",
"M. c #E9BBAB",
"N. c #EFC393",
"B. c #F1D6BB",
"V. c #838FC5",
"C. c #8694CF",
"Z. c #919CCA",
"A. c #8C9BDC",
"S. c #9EA8D1",
"D. c #ADB2C3",
"F. c #B8BBC8",
"G. c #8D9CE5",
"H. c #A4B0E5",
"J. c #BDC2D2",
"K. c #BFC8EF",
"L. c #C2C3CC",
"P. c #C5C5C9",
"I. c #DDD3CB",
"U. c #DCDBDD",
"Y. c #DAD4D1",
"T. c #C5C9DD",
"R. c #F2C7C1",
"E. c #E8D0CC",
"W. c #EFD3CE",
"Q. c #F2E0D6",
"!. c #C8CFF1",
"~. c #E5E3E2",
"^. c gray91",
"/. c #F0EEED",
"(. c #F5F3EF",
"). c #F5F4F2",
/* pixels */
"                              T.                ",
"                              Z.J.              ",
"                              G.%.              ",
"                              G.y               ",
"                              q.9 f.            ",
"                              9.Y s             ",
"  ^.                        !.6.) =             ",
"  c.^.g.                    w.2.` &             ",
"E.x.E.~.t.                K.9.1.` &             ",
"  M.    (.a.              G.g.S a ; D.          ",
"Q.R.      Q.i.M         l.b.F J Z k i           ",
"          M.U m A       j.b.b b x z + h.        ",
"            N.L N       E.i.G n m z % h         ",
"              P D       J.u.i.B B @ 2 7 &       ",
"              B.H E.    o.t.j.V U.j y ^ < h     ",
"                U B   C.W a.h.C h.r./ ^ w >     ",
"                n.H d E Y p.l.g.z.p.T ` ] w @.  ",
"                B.K c < - $.k.P.P.=.! 5 ~ 0 8   ",
"                  I v = * &.l.U.g.&.! 9 * 5 5 D.",
"                    f . . O.z./.g.3.Q 9 & ( 9 0.",
"                    a.X . >.F.(.L.<.T 0 * 7 7 p.",
"                    F.: g 3.V.).S.:.E E r , ,   ",
"                    F.4   7.7.U.5.,.T ] r > 0.  ",
"                          *.<.f. .>.T ..r :     ",
"                          3.,.O.| | Q E 7 @.    ",
"                          3.,.:.| } ) E 7 @.    ",
"                           .:.:.} } _ R q f     ",
"                          _ { :.{ } [ 0 q ,     ",
"                        A.Q ) Q ! ! _ R 5 -     ",
"                        o.R 4 @ O 3 9 R 5 < +.  ",
"                      H.O.j u $ a p 1 q W e t 0.",
"                        P.e.y.l.F j t.          "
};
