/* XPM */
static char *large_ktip[] = {
/* columns rows colors chars-per-pixel */
"36 48 214 2 ",
"   c None",
".  c #080E27",
"X  c #091334",
"o  c #0D183C",
"O  c #131534",
"+  c #21182C",
"@  c #1F253E",
"#  c #312932",
"$  c #741B0D",
"%  c #48231E",
"&  c #752C10",
"*  c #742C14",
"=  c #463939",
"-  c #573734",
";  c #442C2D",
":  c #723A2A",
">  c #794129",
",  c #7A4135",
"<  c #0C1943",
"1  c #0B1B4C",
"2  c #111D44",
"3  c #0C1D51",
"4  c #0C1F5B",
"5  c #192449",
"6  c #0E215D",
"7  c #122254",
"8  c #1E2B52",
"9  c #112359",
"0  c #19295C",
"q  c #252949",
"w  c #222B57",
"e  c #2B355B",
"r  c #35345B",
"t  c #0C1F62",
"y  c #0D2164",
"u  c #0E236C",
"i  c #112464",
"p  c #10256C",
"a  c #172A66",
"s  c #0E2574",
"d  c #0E257A",
"f  c #0F287E",
"g  c #102775",
"h  c #142A74",
"j  c #132A7D",
"k  c #142A77",
"l  c #283766",
"z  c #313D6A",
"x  c #324273",
"c  c #3B4577",
"v  c #3F4A6F",
"b  c #4A4649",
"n  c #5E524E",
"m  c #5C585C",
"M  c #404153",
"N  c #6D554E",
"B  c #4B567B",
"V  c #505977",
"C  c #605F6E",
"Z  c #786662",
"A  c #6B6C77",
"S  c #7B7778",
"D  c #706B6D",
"F  c #89361C",
"G  c #833F35",
"H  c #8C431D",
"J  c #965628",
"K  c #8B4D2E",
"L  c #B85F21",
"P  c #94623B",
"I  c #B2652C",
"U  c #BE642C",
"Y  c #B66932",
"T  c #BD7636",
"R  c #CB6F34",
"E  c #875342",
"W  c #93704C",
"Q  c #A96F51",
"!  c #897768",
"~  c #8F756C",
"^  c #D84946",
"/  c #D56E69",
"(  c #D9853F",
")  c #C8813E",
"_  c #94806C",
"`  c #A98972",
"'  c #C98A4C",
"]  c #D89657",
"[  c #CE975F",
"{  c #E98B46",
"}  c #EA944D",
"|  c #CF9C75",
" . c #E79F71",
".. c #D5A87A",
"X. c #EFAB67",
"o. c #EEB476",
"O. c #F1AF6A",
"+. c #0E2784",
"@. c #0F2885",
"#. c #0E288C",
"$. c #0E2789",
"%. c #122B83",
"&. c #122C8B",
"*. c #1B328A",
"=. c #0F2A94",
"-. c #0F2A9C",
";. c #142F94",
":. c #193396",
">. c #293D84",
",. c #0E2CA7",
"<. c #0F2EAB",
"1. c #112EA1",
"2. c #112FA9",
"3. c #1431A6",
"4. c #1332AD",
"5. c #1C37A6",
"6. c #0E2EB2",
"7. c #0E2EBB",
"8. c #0F30B5",
"9. c #0F30BD",
"0. c #1131B4",
"q. c #1333BB",
"w. c #1C3ABB",
"e. c #0F30AF",
"r. c #233DAB",
"t. c #33489B",
"y. c #36478D",
"u. c #2743B9",
"i. c #3049AC",
"p. c #4C5B9E",
"a. c #586388",
"s. c #656D8E",
"d. c #4358AE",
"f. c #5669B5",
"g. c #4D61B6",
"h. c #6876B2",
"j. c #6D7BAB",
"k. c #0D2FC5",
"l. c #0E31C5",
"z. c #0F32CA",
"x. c #1335C3",
"c. c #1939C3",
"v. c #1638CB",
"b. c #0C30D8",
"n. c #173ADC",
"m. c #203FC3",
"M. c #1E40DB",
"N. c #2D4AD1",
"B. c #2744C6",
"V. c #3F5DEC",
"C. c #465DC4",
"Z. c #576DC8",
"A. c #4C65D7",
"S. c #546CD4",
"D. c #6678CA",
"F. c #526CE6",
"G. c #566FE7",
"H. c #677EE5",
"J. c #7D849B",
"K. c #7B85AA",
"L. c #7382CE",
"P. c #6D82E6",
"I. c #848388",
"U. c #958D8A",
"Y. c #858899",
"T. c #9B999A",
"R. c #969496",
"E. c #A8988A",
"W. c #B09888",
"Q. c #B3A49A",
"!. c #848CA9",
"~. c #8A91A8",
"^. c #989BAA",
"/. c #8D95B5",
"(. c #9CA1B2",
"). c #A4A3A5",
"_. c #A5A5A9",
"`. c #ABA7A8",
"'. c #AFAFB5",
"]. c #A4A9BB",
"[. c #B3B3B7",
"{. c #BAB8B9",
"}. c #D1938D",
"|. c #DCB689",
" X c #E6BD98",
".X c #E1B98B",
"XX c #C4BFBB",
"oX c #CCB4AC",
"OX c #E1ABA6",
"+X c #EEC59B",
"@X c #D4C6B5",
"#X c #EDCBB4",
"$X c #8D9AD1",
"%X c #9EA8DA",
"&X c #B8BBC7",
"*X c #A8B0D0",
"=X c #8595E2",
"-X c #9BA9E4",
";X c #B2BCEA",
":X c #CBCACD",
">X c #C7C5C5",
",X c #C5C8D3",
"<X c #DDDBDD",
"1X c #D2D2D4",
"2X c #D0C2C2",
"3X c #F2DAC6",
"4X c #E9D9D5",
"5X c #F7DDD6",
"6X c #ECD2C7",
"7X c #E4E0DB",
"8X c #E3E3E2",
"9X c #EDEBEA",
"0X c #F8F6F4",
"qX c #F4F1EE",
/* pixels */
"                                                                        ",
"                                              h.                        ",
"                                              f.                        ",
"                                              Z.c                       ",
"                                              S.p                       ",
"                                              F.%.                      ",
"                                              S.@.8                     ",
"                                              N.f <                     ",
"                                              n.=.3 V                   ",
"    <X                                      P.n.2.u q                   ",
"  }.4X<X1X                                  F.b.6.g X                   ",
"  ^ 6X  `.I.                              H.F.b.0.d X                   ",
"    / OX  XXS                             G.F.b.q.@.X                   ",
"}.OXOX4X    8XA :X                      P.A.N.q.5.d X                   ",
"    /           I.! oX                  L.2X..' T : 2 !.                ",
"    5X          0X_.H ~               U. XQ.| [ Q Y $ #                 ",
"    5X        3X| 3XX.F               @X{.Z W P n ! * # Q.              ",
"    5X           X] { R =             W.|.) ) J I L & * P               ",
"                  +X{ { :             E..X' ' I T T * J N ^.            ",
"                    O.( >             U.E.[ [ H T I % = 0 < e (.        ",
"                    6X] Y             Y.W.E.@XK _ H = e &.y o 8         ",
"                       X} '         Z.B `.{.Q.` 7X).m x 3.%.i <         ",
"                      3XO.I         y.y._.@XQ F E.8XA >.3.&.i 7 e       ",
"                        o.( E     C.3.>.{.{.R.U.U.8XA :.3.;.;.h 7 ].    ",
"                        +XX.Y Z t.:.&.*.'.>X).T.R.<Xs.+.<.4.4.;.i v     ",
"                        #Xo.{ * 0 u s h ^.{.'.'.[.:Xp.$.-.#.3.3.j 9     ",
"                          o.} R - 9 y u K._.:X1X[.'.i.=.$.6 @.%.h 6 a.  ",
"                          +X{ R : 3 3 %.h.).7X<X[.T.m.=.=.u < g u s l   ",
"                             .N + < X d d.).qX8X'.J.x.#.,.s 1 5 h h a   ",
"                              !.X X . g u.R.  9X`.K.x.+.-.y 1 8 5.u a   ",
"                                O 2 . k w.(.qX0X>XL.z.f ,.y 1 o +.s i   ",
"                                5 q . t.9.!.9X0X7XN.z.s 3.s a 0 4 4 l   ",
"                                r @ M %X8.g.<X0X,XB.l.d 2.@.x x 0 2 ~.  ",
"                                z q     9.B.&X8XD.x.x.@.-.;.x 8 7 l     ",
"                                x       x.v.$X,Xu.x.x.#.;.i.x < 2 ~.    ",
"                                        3.c.d.(.w.q.c.-.*.t.x 5 8       ",
"                                      -X0.v.q.g.w.x.q.<.j j p 7 ~.      ",
"                                      ;X0.v.l.q.q.q.9.6.%.;.h 1 ].      ",
"                                      ;X7.x.l.l.9.q.6.<.$.;.h 1 (.      ",
"                                      -X6.l.l.7.<.8.8.,.=.&.%.7 J.      ",
"                                      D.6.k.k.k.7.8.<.<.=.@.g 6 V       ",
"                                      u.,.6.k.k.l.0.8.<.,.d %.9 7       ",
"                                      4.=.7.7.7.7.8.8.6.<.@.p 9 7 ].    ",
"                                    $X&.@.f w @ q 5 s f d d g y 1 s.    ",
"                                    C.;.*.r K - # = r p %.&.g 9 7 w &X  ",
"                                  =Xu.c Z b N : b n - q i p h h a 0 e (.",
"                                  %Xf.~ ~ n b m ~ ! b = C j.f.f.!.].&X,X",
"                                      XXR.).    E._ S `.                "
};
