/* XPM */
static char *mini_ktip[] = {
/* columns rows colors chars-per-pixel */
"12 16 86 1 ",
"  c None",
". c #1E2D5A",
"X c #0F2260",
"o c #132562",
"O c #192A60",
"+ c #102575",
"@ c #302F61",
"# c #24356B",
"$ c #24366F",
"% c #202D71",
"& c #2B2F71",
"* c #213277",
"= c #483846",
"- c #483C5C",
"; c #3D4C7C",
": c #42415D",
"> c #75675E",
", c #5D637C",
"< c #8E5033",
"1 c #8E5834",
"2 c #AA7C51",
"3 c #837473",
"4 c #B78357",
"5 c #94817C",
"6 c #C2855D",
"7 c #D39D70",
"8 c #E9AD78",
"9 c #0E2887",
"0 c #0F2987",
"q c #0F2988",
"w c #0F298F",
"e c #122C8C",
"r c #0F2B98",
"t c #112C94",
"y c #193292",
"u c #193396",
"i c #293B87",
"p c #0F30B5",
"a c #1233BB",
"s c #3F4E89",
"d c #3C52AA",
"f c #404F84",
"g c #4F5E90",
"h c #5E6B9E",
"j c #71758E",
"k c #636F94",
"l c #696EBB",
"z c #6F7BB1",
"x c #0E30C2",
"c c #1939C2",
"v c #2140C0",
"b c #6175CB",
"n c #6078E6",
"m c #7D89B4",
"M c #7685C7",
"N c #7788D1",
"B c #828299",
"V c #AA9187",
"C c #959AB2",
"Z c #A39FA0",
"A c #99A0B6",
"S c #A3A8B6",
"D c #A8ACBA",
"F c #A9AEBF",
"G c #B5B4B8",
"H c #EAB488",
"J c #C4B5A6",
"K c #C0B5AD",
"L c #CDB7A9",
"P c #E6BAB5",
"I c #9FA7C1",
"U c #92A1DE",
"Y c #9EAADC",
"T c #B1BCED",
"R c #C2C6CF",
"E c #CFCED0",
"W c #C8CADB",
"Q c #E8CAC8",
"! c #F7E1DD",
"~ c #F5E5DC",
"^ c #C5CDEF",
"/ c #D4D8E8",
"( c #D1D7F1",
") c #DCE0ED",
"_ c #F0E9E7",
"` c #E5E8F5",
/* pixels */
"       /    ",
"       ^I   ",
"       Tf   ",
"Q      n+   ",
"P_    (l@   ",
"! ~6  J2<5  ",
"   HL K41:S ",
"    7)hVZy# ",
"    8-sGCweA",
"     =*Ez9og",
"     ,iWb9Ok",
"     DYMvu. ",
"      Ucat; ",
"      Nxpr$ ",
"      d&%qoR",
"     `B3>jmF"
};
